<svg width="121" height="20" viewBox="0 0 121 20" fill="none" xmlns="http://www.w3.org/2000/svg">
<path d="M0.75 19V0.999999H8.025C8.2 0.999999 8.41667 1.00833 8.675 1.025C8.93333 1.03333 9.17917 1.05833 9.4125 1.1C10.4125 1.25833 11.2458 1.6 11.9125 2.125C12.5875 2.65 13.0917 3.3125 13.425 4.1125C13.7583 4.9125 13.925 5.79583 13.925 6.7625C13.925 7.7375 13.7583 8.625 13.425 9.425C13.0917 10.225 12.5875 10.8875 11.9125 11.4125C11.2458 11.9375 10.4125 12.2792 9.4125 12.4375C9.17917 12.4708 8.92917 12.4958 8.6625 12.5125C8.40417 12.5292 8.19167 12.5375 8.025 12.5375H3.3625V19H0.75ZM3.3625 10.0625H7.925C8.09167 10.0625 8.275 10.0542 8.475 10.0375C8.68333 10.0208 8.87917 9.99167 9.0625 9.95C9.59583 9.825 10.025 9.59583 10.35 9.2625C10.675 8.92083 10.9083 8.52917 11.05 8.0875C11.1917 7.64583 11.2625 7.20417 11.2625 6.7625C11.2625 6.32083 11.1917 5.88333 11.05 5.45C10.9083 5.00833 10.675 4.62083 10.35 4.2875C10.025 3.94583 9.59583 3.7125 9.0625 3.5875C8.87917 3.5375 8.68333 3.50417 8.475 3.4875C8.275 3.47083 8.09167 3.4625 7.925 3.4625H3.3625V10.0625ZM21.5113 19.3625C20.578 19.3625 19.7947 19.2125 19.1613 18.9125C18.528 18.6125 18.0113 18.2208 17.6113 17.7375C17.2197 17.2458 16.9197 16.7125 16.7113 16.1375C16.503 15.5625 16.3613 15 16.2863 14.45C16.2113 13.9 16.1738 13.4167 16.1738 13V5.5H18.8238V12.1375C18.8238 12.6625 18.8655 13.2042 18.9488 13.7625C19.0405 14.3125 19.2072 14.825 19.4488 15.3C19.6988 15.775 20.0447 16.1583 20.4863 16.45C20.9363 16.7417 21.5197 16.8875 22.2363 16.8875C22.703 16.8875 23.1447 16.8125 23.5613 16.6625C23.978 16.5042 24.3405 16.2542 24.6488 15.9125C24.9655 15.5708 25.2113 15.1208 25.3863 14.5625C25.5697 14.0042 25.6613 13.325 25.6613 12.525L27.2863 13.1375C27.2863 14.3625 27.0572 15.4458 26.5988 16.3875C26.1405 17.3208 25.4822 18.05 24.6238 18.575C23.7655 19.1 22.728 19.3625 21.5113 19.3625ZM25.9738 19V15.1H25.6613V5.5H28.2988V19H25.9738ZM31.8047 19V5.5H34.1297V8.775L33.8047 8.35C33.9714 7.91667 34.188 7.52083 34.4547 7.1625C34.7214 6.79583 35.0297 6.49583 35.3797 6.2625C35.7214 6.0125 36.1005 5.82083 36.5172 5.6875C36.9422 5.54583 37.3755 5.4625 37.8172 5.4375C38.2589 5.40417 38.6839 5.425 39.0922 5.5V7.95C38.6505 7.83333 38.1589 7.8 37.6172 7.85C37.0839 7.9 36.5922 8.07083 36.1422 8.3625C35.7172 8.6375 35.3797 8.97083 35.1297 9.3625C34.888 9.75417 34.713 10.1917 34.6047 10.675C34.4964 11.15 34.4422 11.6542 34.4422 12.1875V19H31.8047ZM41.4727 19V5.5H43.7977V8.775L43.4727 8.35C43.6393 7.91667 43.856 7.52083 44.1227 7.1625C44.3893 6.79583 44.6977 6.49583 45.0477 6.2625C45.3893 6.0125 45.7685 5.82083 46.1852 5.6875C46.6102 5.54583 47.0435 5.4625 47.4852 5.4375C47.9268 5.40417 48.3518 5.425 48.7602 5.5V7.95C48.3185 7.83333 47.8268 7.8 47.2852 7.85C46.7518 7.9 46.2602 8.07083 45.8102 8.3625C45.3852 8.6375 45.0477 8.97083 44.7977 9.3625C44.556 9.75417 44.381 10.1917 44.2727 10.675C44.1643 11.15 44.1102 11.6542 44.1102 12.1875V19H41.4727ZM60.6156 19V12.3625C60.6156 11.8375 60.5698 11.3 60.4781 10.75C60.3948 10.1917 60.2281 9.675 59.9781 9.2C59.7365 8.725 59.3906 8.34167 58.9406 8.05C58.499 7.75833 57.9198 7.6125 57.2031 7.6125C56.7365 7.6125 56.2948 7.69167 55.8781 7.85C55.4615 8 55.0948 8.24583 54.7781 8.5875C54.4698 8.92917 54.224 9.37917 54.0406 9.9375C53.8656 10.4958 53.7781 11.175 53.7781 11.975L52.1531 11.3625C52.1531 10.1375 52.3823 9.05833 52.8406 8.125C53.299 7.18333 53.9573 6.45 54.8156 5.925C55.674 5.4 56.7115 5.1375 57.9281 5.1375C58.8615 5.1375 59.6448 5.2875 60.2781 5.5875C60.9115 5.8875 61.424 6.28333 61.8156 6.775C62.2156 7.25833 62.5198 7.7875 62.7281 8.3625C62.9365 8.9375 63.0781 9.5 63.1531 10.05C63.2281 10.6 63.2656 11.0833 63.2656 11.5V19H60.6156ZM51.1281 19V5.5H53.4656V9.4H53.7781V19H51.1281ZM66.7715 3.2875V0.75H69.384V3.2875H66.7715ZM66.7715 19V5.5H69.384V19H66.7715ZM80.8627 19C80.0127 19.1667 79.1794 19.2375 78.3627 19.2125C77.546 19.1875 76.8169 19.0292 76.1752 18.7375C75.5335 18.4458 75.0502 17.9875 74.7252 17.3625C74.4335 16.8042 74.2752 16.2375 74.2502 15.6625C74.2335 15.0792 74.2252 14.4208 74.2252 13.6875V1.75H76.8502V13.5625C76.8502 14.1042 76.8544 14.575 76.8627 14.975C76.8794 15.375 76.9669 15.7125 77.1252 15.9875C77.4252 16.5042 77.9002 16.8 78.5502 16.875C79.2085 16.9417 79.9794 16.9125 80.8627 16.7875V19ZM71.6377 7.6V5.5H80.8627V7.6H71.6377ZM88.7965 19.3625C87.8632 19.3625 87.0798 19.2125 86.4465 18.9125C85.8132 18.6125 85.2965 18.2208 84.8965 17.7375C84.5048 17.2458 84.2048 16.7125 83.9965 16.1375C83.7882 15.5625 83.6465 15 83.5715 14.45C83.4965 13.9 83.459 13.4167 83.459 13V5.5H86.109V12.1375C86.109 12.6625 86.1507 13.2042 86.234 13.7625C86.3257 14.3125 86.4923 14.825 86.734 15.3C86.984 15.775 87.3298 16.1583 87.7715 16.45C88.2215 16.7417 88.8048 16.8875 89.5215 16.8875C89.9882 16.8875 90.4298 16.8125 90.8465 16.6625C91.2632 16.5042 91.6257 16.2542 91.934 15.9125C92.2507 15.5708 92.4965 15.1208 92.6715 14.5625C92.8548 14.0042 92.9465 13.325 92.9465 12.525L94.5715 13.1375C94.5715 14.3625 94.3423 15.4458 93.884 16.3875C93.4257 17.3208 92.7673 18.05 91.909 18.575C91.0507 19.1 90.0132 19.3625 88.7965 19.3625ZM93.259 19V15.1H92.9465V5.5H95.584V19H93.259ZM99.0898 19V5.5H101.415V8.775L101.09 8.35C101.257 7.91667 101.473 7.52083 101.74 7.1625C102.007 6.79583 102.315 6.49583 102.665 6.2625C103.007 6.0125 103.386 5.82083 103.802 5.6875C104.227 5.54583 104.661 5.4625 105.102 5.4375C105.544 5.40417 105.969 5.425 106.377 5.5V7.95C105.936 7.83333 105.444 7.8 104.902 7.85C104.369 7.9 103.877 8.07083 103.427 8.3625C103.002 8.6375 102.665 8.97083 102.415 9.3625C102.173 9.75417 101.998 10.1917 101.89 10.675C101.782 11.15 101.727 11.6542 101.727 12.1875V19H99.0898ZM114.501 19.375C113.16 19.375 111.98 19.0833 110.964 18.5C109.955 17.9083 109.168 17.0875 108.601 16.0375C108.043 14.9792 107.764 13.7542 107.764 12.3625C107.764 10.8875 108.039 9.60833 108.589 8.525C109.147 7.44167 109.922 6.60417 110.914 6.0125C111.905 5.42083 113.06 5.125 114.376 5.125C115.751 5.125 116.922 5.44583 117.889 6.0875C118.855 6.72083 119.576 7.625 120.051 8.8C120.535 9.975 120.726 11.3708 120.626 12.9875H118.014V12.0375C117.997 10.4708 117.697 9.3125 117.114 8.5625C116.539 7.8125 115.66 7.4375 114.476 7.4375C113.168 7.4375 112.185 7.85 111.526 8.675C110.868 9.5 110.539 10.6917 110.539 12.25C110.539 13.7333 110.868 14.8833 111.526 15.7C112.185 16.5083 113.135 16.9125 114.376 16.9125C115.193 16.9125 115.897 16.7292 116.489 16.3625C117.089 15.9875 117.555 15.4542 117.889 14.7625L120.451 15.575C119.926 16.7833 119.13 17.7208 118.064 18.3875C116.997 19.0458 115.81 19.375 114.501 19.375ZM109.689 12.9875V10.95H119.326V12.9875H109.689Z" fill="#1A1A1A"/>
</svg>
